<svg xmlns="http://www.w3.org/2000/svg" xmlns:xlink="http://www.w3.org/1999/xlink" width="1452" zoomAndPan="magnify" viewBox="0 0 1089 185.999996" height="248" preserveAspectRatio="xMidYMid meet" version="1.0"><defs><g/><clipPath id="f9c8b5ed05"><path d="M 35 58 L 198 58 L 198 182.25 L 35 182.25 Z M 35 58 " clip-rule="nonzero"/></clipPath></defs><g clip-path="url(#f9c8b5ed05)"><path fill="#ffffff" d="M 197.824219 91.128906 C 197.824219 141.453125 157.035156 182.253906 106.726562 182.253906 C 78.03125 182.253906 52.433594 168.972656 35.753906 148.226562 L 45.527344 142.339844 C 60.160156 159.832031 82.136719 170.953125 106.726562 170.953125 C 150.804688 170.953125 186.539062 135.210938 186.539062 91.128906 C 186.539062 81.5625 184.851562 72.402344 181.765625 63.910156 L 191.660156 58.15625 C 195.640625 68.378906 197.820312 79.496094 197.820312 91.128906 Z M 197.824219 91.128906 " fill-opacity="0.5" fill-rule="evenodd"/></g><path fill="#ffffff" d="M 190.292969 54.804688 L 180.457031 60.507812 C 168.453125 31.605469 139.972656 11.289062 106.730469 11.289062 C 62.65625 11.289062 26.929688 47.039062 26.929688 91.128906 C 26.929688 109.320312 33.015625 126.09375 43.273438 139.523438 L 33.550781 145.367188 C 22.300781 130.214844 15.648438 111.445312 15.648438 91.128906 C 15.644531 40.804688 56.421875 0 106.730469 0 C 144.140625 0 176.261719 22.550781 190.292969 54.804688 Z M 190.292969 54.804688 " fill-opacity="1" fill-rule="evenodd"/><path fill="#ffffff" d="M 78.84375 119.03125 L 61.15625 129.222656 C 60.296875 129.714844 59.226562 129.09375 59.226562 128.109375 L 59.226562 107.710938 Z M 78.84375 119.03125 " fill-opacity="1" fill-rule="evenodd"/><path fill="#ffffff" d="M 134.625 119.03125 L 152.3125 129.222656 C 153.171875 129.714844 154.242188 129.09375 154.242188 128.109375 L 154.242188 107.710938 C 154.242188 107.710938 134.625 119.03125 134.625 119.03125 Z M 134.625 119.03125 " fill-opacity="0.5" fill-rule="evenodd"/><path fill="#ffffff" d="M 80.730469 92.152344 L 80.730469 115.984375 L 59.226562 103.554688 L 59.226562 79.730469 Z M 80.730469 92.152344 " fill-opacity="1" fill-rule="evenodd"/><path fill="#ffffff" d="M 80.730469 63.152344 L 80.730469 88.007812 L 59.226562 75.585938 L 59.226562 52.964844 C 59.226562 51.976562 60.296875 51.355469 61.15625 51.855469 Z M 80.730469 63.152344 " fill-opacity="1" fill-rule="evenodd"/><path fill="#ffffff" d="M 104.933594 77.140625 L 104.933594 102.007812 L 100.488281 99.445312 L 84.316406 90.136719 L 84.316406 65.242188 Z M 104.933594 77.140625 " fill-opacity="1" fill-rule="evenodd"/><path fill="#ffffff" d="M 129.140625 65.242188 L 129.140625 90.0625 L 108.527344 101.929688 L 108.527344 77.152344 Z M 129.140625 65.242188 " fill-opacity="1" fill-rule="evenodd"/><path fill="#ffffff" d="M 154.242188 52.964844 L 154.242188 75.601562 L 132.730469 87.992188 L 132.730469 63.164062 L 152.320312 51.855469 C 153.175781 51.363281 154.246094 51.976562 154.246094 52.964844 Z M 154.242188 52.964844 " fill-opacity="1" fill-rule="evenodd"/><path fill="#ffffff" d="M 84.328125 80.761719 L 84.328125 91.132812 L 84.316406 91.128906 L 84.316406 80.761719 Z M 84.328125 80.761719 " fill-opacity="1" fill-rule="evenodd"/><g fill="#ffffff" fill-opacity="1"><g transform="translate(203.105843, 128.219038)"><g><path d="M 7.609375 0 L 7.609375 -77.15625 L 21.9375 -77.15625 L 21.9375 0 Z M 7.609375 0 "/></g></g></g><g fill="#ffffff" fill-opacity="1"><g transform="translate(230.656457, 128.219038)"><g><path d="M 59.625 -29.765625 L 80.90625 0 L 65.140625 0 L 44.96875 -28.875 L 21.15625 -28.875 L 21.15625 0 L 7.046875 0 L 7.046875 -77.15625 L 59.296875 -77.15625 C 65.765625 -77.15625 70.429688 -75.738281 73.296875 -72.90625 C 76.160156 -70.082031 77.59375 -65.398438 77.59375 -58.859375 L 77.59375 -48.0625 C 77.59375 -41.59375 76.195312 -36.941406 73.40625 -34.109375 C 70.613281 -31.285156 66.019531 -29.835938 59.625 -29.765625 Z M 54.125 -66.359375 L 21.15625 -66.359375 L 21.15625 -39.453125 L 54.125 -39.453125 C 57.71875 -39.453125 60.175781 -40.09375 61.5 -41.375 C 62.820312 -42.664062 63.484375 -45.113281 63.484375 -48.71875 L 63.484375 -57.09375 C 63.484375 -60.695312 62.820312 -63.140625 61.5 -64.421875 C 60.175781 -65.710938 57.71875 -66.359375 54.125 -66.359375 Z M 54.125 -66.359375 "/></g></g></g><g fill="#ffffff" fill-opacity="1"><g transform="translate(312.647458, 128.219038)"><g><path d="M 59.625 -29.765625 L 80.90625 0 L 65.140625 0 L 44.96875 -28.875 L 21.15625 -28.875 L 21.15625 0 L 7.046875 0 L 7.046875 -77.15625 L 59.296875 -77.15625 C 65.765625 -77.15625 70.429688 -75.738281 73.296875 -72.90625 C 76.160156 -70.082031 77.59375 -65.398438 77.59375 -58.859375 L 77.59375 -48.0625 C 77.59375 -41.59375 76.195312 -36.941406 73.40625 -34.109375 C 70.613281 -31.285156 66.019531 -29.835938 59.625 -29.765625 Z M 54.125 -66.359375 L 21.15625 -66.359375 L 21.15625 -39.453125 L 54.125 -39.453125 C 57.71875 -39.453125 60.175781 -40.09375 61.5 -41.375 C 62.820312 -42.664062 63.484375 -45.113281 63.484375 -48.71875 L 63.484375 -57.09375 C 63.484375 -60.695312 62.820312 -63.140625 61.5 -64.421875 C 60.175781 -65.710938 57.71875 -66.359375 54.125 -66.359375 Z M 54.125 -66.359375 "/></g></g></g><g fill="#ffffff" fill-opacity="1"><g transform="translate(394.638454, 128.219038)"><g><path d="M 61.609375 0 L 26.5625 0 C 19.507812 0 14.328125 -1.648438 11.015625 -4.953125 C 7.710938 -8.265625 6.0625 -13.445312 6.0625 -20.5 L 6.0625 -56.65625 C 6.0625 -63.707031 7.710938 -68.882812 11.015625 -72.1875 C 14.328125 -75.5 19.507812 -77.15625 26.5625 -77.15625 L 61.609375 -77.15625 C 68.660156 -77.15625 73.835938 -75.5 77.140625 -72.1875 C 80.453125 -68.882812 82.109375 -63.707031 82.109375 -56.65625 L 82.109375 -20.5 C 82.109375 -13.445312 80.453125 -8.265625 77.140625 -4.953125 C 73.835938 -1.648438 68.660156 0 61.609375 0 Z M 31.1875 -12.125 L 56.984375 -12.125 C 61.023438 -12.125 63.867188 -12.945312 65.515625 -14.59375 C 67.171875 -16.25 68 -19.097656 68 -23.140625 L 68 -54 C 68 -58.039062 67.171875 -60.890625 65.515625 -62.546875 C 63.867188 -64.203125 61.023438 -65.03125 56.984375 -65.03125 L 31.1875 -65.03125 C 27.144531 -65.03125 24.296875 -64.21875 22.640625 -62.59375 C 20.992188 -60.976562 20.171875 -58.113281 20.171875 -54 L 20.171875 -23.140625 C 20.171875 -19.023438 20.992188 -16.160156 22.640625 -14.546875 C 24.296875 -12.929688 27.144531 -12.125 31.1875 -12.125 Z M 31.1875 -12.125 "/></g></g></g><g fill="#ffffff" fill-opacity="1"><g transform="translate(480.817175, 128.219038)"><g><path d="M 59.625 -29.765625 L 80.90625 0 L 65.140625 0 L 44.96875 -28.875 L 21.15625 -28.875 L 21.15625 0 L 7.046875 0 L 7.046875 -77.15625 L 59.296875 -77.15625 C 65.765625 -77.15625 70.429688 -75.738281 73.296875 -72.90625 C 76.160156 -70.082031 77.59375 -65.398438 77.59375 -58.859375 L 77.59375 -48.0625 C 77.59375 -41.59375 76.195312 -36.941406 73.40625 -34.109375 C 70.613281 -31.285156 66.019531 -29.835938 59.625 -29.765625 Z M 54.125 -66.359375 L 21.15625 -66.359375 L 21.15625 -39.453125 L 54.125 -39.453125 C 57.71875 -39.453125 60.175781 -40.09375 61.5 -41.375 C 62.820312 -42.664062 63.484375 -45.113281 63.484375 -48.71875 L 63.484375 -57.09375 C 63.484375 -60.695312 62.820312 -63.140625 61.5 -64.421875 C 60.175781 -65.710938 57.71875 -66.359375 54.125 -66.359375 Z M 54.125 -66.359375 "/></g></g></g><g fill="#ffffff" fill-opacity="1"><g transform="translate(594.617134, 128.219038)"><g><path d="M 21.15625 -34.609375 L 21.15625 -11.796875 L 71.203125 -11.796875 L 71.203125 0 L 7.046875 0 L 7.046875 -77.15625 L 70.09375 -77.15625 L 70.09375 -65.359375 L 21.15625 -65.359375 L 21.15625 -45.515625 L 65.6875 -45.515625 L 65.6875 -34.609375 Z M 21.15625 -34.609375 "/></g></g></g><g fill="#ffffff" fill-opacity="1"><g transform="translate(667.351068, 128.219038)"><g><path d="M 68.328125 -21.15625 L 68.328125 -77.15625 L 82 -77.15625 L 82 0 L 70.765625 0 L 20.71875 -56.875 L 20.71875 0 L 7.046875 0 L 7.046875 -77.15625 L 18.953125 -77.15625 Z M 68.328125 -21.15625 "/></g></g></g><g fill="#ffffff" fill-opacity="1"><g transform="translate(754.411412, 128.219038)"><g><path d="M 6.0625 -20.5 L 6.0625 -56.65625 C 6.0625 -63.707031 7.710938 -68.882812 11.015625 -72.1875 C 14.328125 -75.5 19.507812 -77.15625 26.5625 -77.15625 L 61.609375 -77.15625 C 68.660156 -77.15625 73.835938 -75.5 77.140625 -72.1875 C 80.453125 -68.882812 82.109375 -63.707031 82.109375 -56.65625 L 82.109375 -52.015625 L 68 -52.015625 L 68 -54.34375 C 68 -58.382812 67.171875 -61.226562 65.515625 -62.875 C 63.867188 -64.53125 61.023438 -65.359375 56.984375 -65.359375 L 31.1875 -65.359375 C 27.144531 -65.359375 24.296875 -64.53125 22.640625 -62.875 C 20.992188 -61.226562 20.171875 -58.382812 20.171875 -54.34375 L 20.171875 -22.484375 C 20.171875 -18.441406 20.992188 -15.59375 22.640625 -13.9375 C 24.296875 -12.289062 27.144531 -11.46875 31.1875 -11.46875 L 57.421875 -11.46875 C 61.460938 -11.46875 64.3125 -12.289062 65.96875 -13.9375 C 67.625 -15.59375 68.453125 -18.441406 68.453125 -22.484375 L 68.453125 -30.421875 L 45.96875 -30.421875 L 45.96875 -41.328125 L 82.109375 -41.328125 L 82.109375 -20.5 C 82.109375 -13.445312 80.453125 -8.265625 77.140625 -4.953125 C 73.835938 -1.648438 68.660156 0 61.609375 0 L 26.5625 0 C 19.507812 0 14.328125 -1.648438 11.015625 -4.953125 C 7.710938 -8.265625 6.0625 -13.445312 6.0625 -20.5 Z M 6.0625 -20.5 "/></g></g></g><g fill="#ffffff" fill-opacity="1"><g transform="translate(840.479926, 128.219038)"><g><path d="M 7.609375 0 L 7.609375 -77.15625 L 21.9375 -77.15625 L 21.9375 0 Z M 7.609375 0 "/></g></g></g><g fill="#ffffff" fill-opacity="1"><g transform="translate(868.030545, 128.219038)"><g><path d="M 68.328125 -21.15625 L 68.328125 -77.15625 L 82 -77.15625 L 82 0 L 70.765625 0 L 20.71875 -56.875 L 20.71875 0 L 7.046875 0 L 7.046875 -77.15625 L 18.953125 -77.15625 Z M 68.328125 -21.15625 "/></g></g></g><g fill="#ffffff" fill-opacity="1"><g transform="translate(955.090896, 128.219038)"><g><path d="M 21.15625 -34.609375 L 21.15625 -11.796875 L 71.203125 -11.796875 L 71.203125 0 L 7.046875 0 L 7.046875 -77.15625 L 70.09375 -77.15625 L 70.09375 -65.359375 L 21.15625 -65.359375 L 21.15625 -45.515625 L 65.6875 -45.515625 L 65.6875 -34.609375 Z M 21.15625 -34.609375 "/></g></g></g></svg>